<svg width="371" height="371" viewBox="0 0 371 371" fill="none" xmlns="http://www.w3.org/2000/svg">
<path fill-rule="evenodd" clip-rule="evenodd" d="M185.5 371C287.949 371 371 287.949 371 185.5C371 83.0513 287.949 0 185.5 0C83.0513 0 0 83.0513 0 185.5C0 287.949 83.0513 371 185.5 371ZM157.053 167.489L132.988 77.7576L108.922 167.489L40 198.82L108.922 230.151L132.988 319.883L157.053 230.151L225.976 198.82L157.053 167.489ZM263.861 47.0001L277.831 99.0896L317.841 117.277L277.831 135.465L263.861 187.554L249.891 135.465L209.881 117.277L249.891 99.0896L263.861 47.0001ZM260.667 270.179L252.799 240.844L244.931 270.179L222.399 280.422L244.931 290.665L252.799 320L260.667 290.665L283.199 280.422L260.667 270.179Z" fill="#D96D00"/>
</svg>
